<svg xmlns="http://www.w3.org/2000/svg" viewBox="0 0 90 27.12"><defs><style>.cls-1{fill:#f8991d;}.cls-1,.cls-2{fill-rule:evenodd;}.cls-2{fill:#010101;}</style></defs><title>Asset 29</title><g id="Layer_2" data-name="Layer 2"><g id="Layer_1-2" data-name="Layer 1"><path class="cls-1" d="M55.83,21.21C50.61,25.07,43,27.12,36.5,27.12a35,35,0,0,1-23.63-9c-.49-.44,0-1.05.54-.7a47.59,47.59,0,0,0,23.64,6.27,46.93,46.93,0,0,0,18-3.69C56,19.61,56.7,20.57,55.83,21.21Z"/><path class="cls-1" d="M58,18.73c-.67-.86-4.42-.41-6.11-.21-.51.06-.59-.38-.13-.71,3-2.1,7.9-1.49,8.47-.79s-.15,5.63-3,8c-.43.36-.85.16-.65-.31C57.27,23.11,58.68,19.58,58,18.73Z"/><path class="cls-2" d="M52,3v-2A.51.51,0,0,1,52.54.4H61.7a.52.52,0,0,1,.53.52V2.67A2.93,2.93,0,0,1,61.54,4l-4.75,6.77A10.13,10.13,0,0,1,62,11.85a.92.92,0,0,1,.49.8v2.18c0,.29-.33.64-.67.46a10.56,10.56,0,0,0-9.68,0c-.32.17-.65-.17-.65-.47V12.76a2.5,2.5,0,0,1,.34-1.4l5.5-7.88H52.55A.52.52,0,0,1,52,3Z"/><path class="cls-2" d="M18.62,15.72H15.84a.52.52,0,0,1-.5-.47V1a.53.53,0,0,1,.54-.51h2.59A.52.52,0,0,1,19,.92V2.79H19A3.68,3.68,0,0,1,22.7.14c1.74,0,2.83.84,3.61,2.65A4.12,4.12,0,0,1,33.39,1.7c.88,1.21.7,3,.7,4.49v9a.53.53,0,0,1-.54.51H30.77a.52.52,0,0,1-.5-.51V7.63A18.34,18.34,0,0,0,30.19,5a1.45,1.45,0,0,0-1.64-1.23,1.85,1.85,0,0,0-1.67,1.17,8.84,8.84,0,0,0-.25,2.74v7.58a.53.53,0,0,1-.54.51H23.31a.52.52,0,0,1-.5-.51V7.63c0-1.6.26-3.94-1.71-3.94S19.16,6,19.16,7.63v7.58A.53.53,0,0,1,18.62,15.72Z"/><path class="cls-2" d="M70.11.14c4.13,0,6.37,3.55,6.37,8.06S74,16,70.11,16c-4.06,0-6.27-3.55-6.27-8S66.08.14,70.11.14Zm0,2.92c-2,0-2.18,2.79-2.18,4.54s0,5.47,2.16,5.47,2.26-3,2.26-4.84A13,13,0,0,0,72,4.44,1.74,1.74,0,0,0,70.13,3.06Z"/><path class="cls-2" d="M81.84,15.72H79.06a.52.52,0,0,1-.5-.51V.91a.52.52,0,0,1,.53-.47h2.59a.52.52,0,0,1,.49.4V3h.06C83,1.07,84.1.14,86,.14a3.65,3.65,0,0,1,3.25,1.68C90,3,90,4.89,90,6.28v9a.52.52,0,0,1-.53.45h-2.8a.52.52,0,0,1-.49-.45V7.51c0-1.57.18-3.85-1.74-3.85A1.83,1.83,0,0,0,82.82,4.8a6.37,6.37,0,0,0-.44,2.71v7.7A.53.53,0,0,1,81.84,15.72Z"/><path class="cls-2" d="M44.72,8.89a5.46,5.46,0,0,1-.52,3,2.26,2.26,0,0,1-1.93,1.27c-1.06,0-1.69-.82-1.69-2,0-2.38,2.13-2.81,4.14-2.81Zm2.81,6.8a.59.59,0,0,1-.66.06,6.66,6.66,0,0,1-1.59-1.86,5.52,5.52,0,0,1-4.59,2,4,4,0,0,1-4.17-4.34,4.74,4.74,0,0,1,3-4.56,19.32,19.32,0,0,1,5.23-1V5.7a3.57,3.57,0,0,0-.33-2A1.88,1.88,0,0,0,42.82,3a2.13,2.13,0,0,0-2.24,1.68.58.58,0,0,1-.48.51l-2.7-.29A.5.5,0,0,1,37,4.26C37.6,1,40.56,0,43.21,0a6.3,6.3,0,0,1,4.2,1.39c1.35,1.26,1.22,3,1.22,4.79v4.34a3.78,3.78,0,0,0,1,2.58c.18.26.22.56,0,.74-.57.48-1.59,1.36-2.14,1.85Z"/><path class="cls-2" d="M8.21,8.89a5.55,5.55,0,0,1-.52,3,2.29,2.29,0,0,1-1.93,1.27c-1.07,0-1.7-.82-1.7-2,0-2.38,2.13-2.81,4.15-2.81ZM11,15.69a.59.59,0,0,1-.66.06,6.72,6.72,0,0,1-1.6-1.86,5.52,5.52,0,0,1-4.59,2A4,4,0,0,1,0,11.58,4.74,4.74,0,0,1,3,7a19.32,19.32,0,0,1,5.24-1V5.7a3.58,3.58,0,0,0-.34-2A1.87,1.87,0,0,0,6.31,3,2.12,2.12,0,0,0,4.07,4.63a.58.58,0,0,1-.49.51L.88,4.85a.5.5,0,0,1-.41-.59C1.09,1,4.05,0,6.7,0a6.29,6.29,0,0,1,4.19,1.39c1.36,1.26,1.23,3,1.23,4.79v4.34a3.78,3.78,0,0,0,1.05,2.58c.18.26.22.56,0,.74-.57.48-1.58,1.36-2.14,1.85Z"/></g></g></svg>