<svg xmlns="http://www.w3.org/2000/svg" viewBox="0 0 120 16.02"><defs><style>.cls-1{fill:#222;}.cls-2{fill:#f0535b;}.cls-3{fill:#eac6a8;}</style></defs><title>Asset 22</title><g id="Layer_2" data-name="Layer 2"><g id="Layer_1-2" data-name="Layer 1"><polygon class="cls-1" points="9.62 0 3.21 0 3.21 3.21 9.62 3.21 9.62 0"/><polygon class="cls-1" points="0 3.21 0 16.02 3.21 16.02 3.21 9.62 8.03 9.62 8.03 6.41 3.21 6.41 3.21 3.21 0 3.21"/><polygon class="cls-2" points="3.21 0 3.21 3.21 0 3.21 3.21 0"/><polygon class="cls-1" points="48.59 3.21 48.59 16.02 51.8 16.02 51.8 9.62 56.61 9.62 56.61 6.41 51.8 6.41 51.8 3.21 48.59 3.21"/><polygon class="cls-3" points="21.79 0 21.79 3.21 25 3.21 21.79 0"/><polygon class="cls-1" points="21.79 3.21 21.79 6.41 18.6 6.41 18.6 3.21 18.6 3.21 21.79 3.21 21.79 0 18.6 0 18.6 0 15.39 3.21 15.39 16.02 18.6 16.02 18.6 9.62 21.79 9.62 21.79 16.02 25 16.02 25 3.21 21.79 3.21"/><polygon class="cls-1" points="110.39 0 110.39 16.02 113.6 16.02 113.6 9.62 116.79 9.62 116.79 16.02 120 16.02 120 0 116.79 0 116.79 6.41 113.6 6.41 113.6 0 113.6 0 110.39 0"/><polygon class="cls-1" points="35.2 6.41 35.2 3.21 38.42 3.21 38.42 3.21 38.42 6.41 41.63 6.41 41.63 3.21 41.63 3.21 38.42 0 38.42 0 32 0 32 16.02 35.2 16.02 35.2 9.62 38.42 9.62 38.42 9.62 38.42 9.62 38.42 16.02 41.63 16.02 41.63 9.62 38.42 6.41 35.2 6.41"/><polygon class="cls-2" points="58.21 0 51.8 0 48.59 3.21 51.8 3.21 51.8 3.21 58.21 3.21 58.21 0"/><polygon class="cls-1" points="89.16 0 79.55 0 79.54 3.21 82.75 3.21 82.75 16.02 85.96 16.02 85.96 3.21 89.16 3.21 89.16 0"/><polygon class="cls-3" points="104.67 16.02 98.26 16.02 98.26 16.02 95.05 12.81 98.26 12.81 98.26 12.81 104.67 12.81 104.67 16.02"/><polygon class="cls-1" points="66.73 12.81 66.73 12.81 66.73 12.81 66.73 9.62 71.54 9.62 71.54 6.41 66.73 6.41 66.73 3.21 66.73 3.21 66.73 3.21 73.14 3.21 73.14 0 66.73 0 66.73 0 63.52 3.21 63.52 3.21 63.52 12.81 63.52 12.81 66.73 16.02 66.73 16.02 73.14 16.02 73.14 12.81 66.73 12.81"/><polygon class="cls-1" points="98.26 0 98.26 0 95.05 3.21 95.05 12.81 98.26 12.81 98.26 3.21 104.67 3.21 104.67 0 98.26 0"/></g></g></svg>