<svg xmlns="http://www.w3.org/2000/svg" viewBox="0 0 94 37.66"><defs><style>.cls-1{fill:#e53338;}.cls-2{fill:#3466b1;}.cls-3{fill:#f3af1c;}.cls-4{fill:#87b940;}</style></defs><title>Asset 27</title><g id="Layer_2" data-name="Layer 2"><g id="Layer_1-2" data-name="Layer 1"><path id="e" class="cls-1" d="M12.15,8.22C5.52,8.22,0,11,0,19.52c0,6.72,3.72,11,12.33,11,10.13,0,10.78-6.67,10.78-6.67H18.2S17.15,27.39,12,27.39c-4.17,0-7.17-2.82-7.17-6.77H23.63V18.15C23.63,14.24,21.14,8.22,12.15,8.22ZM12,11.38c4,0,6.68,2.44,6.68,6.08H5C5,13.59,8.5,11.38,12,11.38Z"/><path id="b" class="cls-2" d="M23.62,0V26.21c0,1.49-.1,3.58-.1,3.58H28.2s.17-1.5.17-2.87c0,0,2.31,3.62,8.6,3.62,6.63,0,11.13-4.6,11.13-11.19C48.1,13.21,44,8.28,37,8.28c-6.54,0-8.57,3.53-8.57,3.53V0ZM35.78,11.52c4.5,0,7.36,3.34,7.36,7.83,0,4.8-3.31,8-7.33,8-4.8,0-7.39-3.76-7.39-7.91C28.42,15.51,30.74,11.52,35.78,11.52Z"/><path id="a" class="cls-3" d="M59.74,8.22c-10,0-10.61,5.46-10.61,6.33h5s.26-3.19,5.31-3.19c3.28,0,5.82,1.5,5.82,4.39v1H59.4c-7.73,0-11.81,2.26-11.81,6.85s3.77,7,8.87,7c7,0,9.2-3.85,9.2-3.85,0,1.53.11,3,.11,3h4.42S70,27.92,70,26.73V16.41c0-6.77-5.46-8.19-10.28-8.19Zm5.48,11.64v1.37c0,1.78-1.1,6.23-7.59,6.23-3.55,0-5.08-1.78-5.08-3.83,0-3.75,5.13-3.77,12.67-3.77Z"/><path id="y" class="cls-4" d="M67.34,9.07h5.59l8,16.06,8-16.06H94L79.43,37.66h-5.3l4.2-8Z"/></g></g></svg>