<svg xmlns="http://www.w3.org/2000/svg" viewBox="0 0 132 31.88"><defs><style>.cls-1{fill:#0a7ec2;}.cls-2{fill:#fab930;}</style></defs><title>Asset 25</title><g id="Layer_2" data-name="Layer 2"><g id="Layer_1-2" data-name="Layer 1"><path class="cls-1" d="M78.32,18.38c0-3.15-1.35-5.92-5.9-5.92a10.79,10.79,0,0,0-5.19,1.24L68,16.23a7.61,7.61,0,0,1,3.79-1.06c2.3,0,2.68,1.3,2.68,2.14v.2c-5,0-8.2,1.73-8.2,5.28A4.19,4.19,0,0,0,70.67,27a5,5,0,0,0,4-1.8h.09s.57,2.4,3.73,1.48a21.07,21.07,0,0,1-.21-3.35m-3.76-1.61a2.45,2.45,0,0,1-2.63,2.53,1.72,1.72,0,0,1-1.86-1.84c0-1.91,2.1-2.44,4.49-2.43Z"/><path class="cls-1" d="M0,8.17S3.28,21.63,3.81,23.82c.61,2.55,1.71,3.48,4.89,2.85l2.05-8.34c.52-2.08.87-3.55,1.2-5.66H12a56.47,56.47,0,0,0,1,5.67s.83,3.78,1.26,5.77,1.62,3.25,4.74,2.56L23.9,8.17H20l-1.67,8c-.45,2.33-.85,4.15-1.17,6.28h-.05c-.29-2.11-.65-3.86-1.11-6.12L14.21,8.17H10.1l-1.85,8c-.53,2.41-1,4.36-1.34,6.42h0c-.32-1.94-.75-4.39-1.21-6.72,0,0-1.11-5.69-1.5-7.65"/><path class="cls-1" d="M35.11,18.38c0-3.15-1.35-5.92-5.89-5.92A10.8,10.8,0,0,0,24,13.7l.74,2.53a7.61,7.61,0,0,1,3.79-1.06c2.31,0,2.68,1.3,2.68,2.14v.2c-5,0-8.2,1.73-8.2,5.28A4.19,4.19,0,0,0,27.46,27a5,5,0,0,0,4-1.8h.09s.57,2.4,3.74,1.48a19.87,19.87,0,0,1-.22-3.35m-3.76-1.61a2.45,2.45,0,0,1-2.62,2.53,1.72,1.72,0,0,1-1.87-1.84c0-1.91,2.1-2.44,4.49-2.43Z"/><polyline class="cls-1" points="41.37 22.74 41.37 8.17 37.61 8.17 37.61 26.67 41.37 26.67"/><path class="cls-1" d="M90.52,8.17V21.82c0,1.88.35,3.2,1.11,4A4.17,4.17,0,0,0,94.69,27a8.56,8.56,0,0,0,2.71-.41l0-2.93a6,6,0,0,1-1.43.17c-1.28,0-1.71-.82-1.71-2.51V16.09h3.27V12.55H94.22V8.17"/><path class="cls-1" d="M80.82,12.78V26.67h3.87V19.56a5.34,5.34,0,0,1,.09-1,2.93,2.93,0,0,1,3.06-2.44,7.16,7.16,0,0,1,1.12.1V12.55a3.63,3.63,0,0,0-.85-.09,4.08,4.08,0,0,0-3.78,2.94h-.11V12.78"/><path class="cls-1" d="M44,12.78V26.67h3.78V18.52A3.3,3.3,0,0,1,48,17.39a2.58,2.58,0,0,1,2.3-1.79c1.52,0,2.23,1.29,2.23,3.15v7.92h3.78V18.42a4.09,4.09,0,0,1,.15-1.12,2.39,2.39,0,0,1,2.27-1.7c1.55,0,2.29,1.27,2.29,3.46v7.61h3.77V18.49c0-4.32-2.19-6-4.66-6a5,5,0,0,0-2.75.76A5.89,5.89,0,0,0,55.57,15h0a4,4,0,0,0-3.83-2.49,4.38,4.38,0,0,0-4,2.2h-.06V12.78"/><path class="cls-2" d="M117.8,10.73a1.36,1.36,0,0,0,1.44-.89L120,1.5c0-.82-1-1.5-2.18-1.5s-2.18.68-2.18,1.5l.74,8.34a1.36,1.36,0,0,0,1.44.89"/><path class="cls-2" d="M113.29,13.34a1.38,1.38,0,0,0-.05-1.7l-6.86-4.81c-.71-.41-1.78.09-2.39,1.14s-.5,2.22.22,2.64l7.58,3.53a1.37,1.37,0,0,0,1.5-.81"/><path class="cls-2" d="M122.31,13.33a1.36,1.36,0,0,0,1.49.81l7.59-3.53c.72-.42.82-1.59.21-2.64s-1.67-1.55-2.39-1.14l-6.85,4.81a1.38,1.38,0,0,0,0,1.7"/><path class="cls-2" d="M117.8,21.15a1.36,1.36,0,0,1,1.44.89l.74,8.34c0,.82-1,1.5-2.18,1.5s-2.18-.68-2.18-1.5l.74-8.34a1.36,1.36,0,0,1,1.44-.89"/><path class="cls-2" d="M122.31,18.55a1.36,1.36,0,0,1,1.49-.81l7.59,3.53c.72.42.82,1.59.21,2.64s-1.67,1.55-2.39,1.14l-6.85-4.81a1.38,1.38,0,0,1,0-1.7"/><path class="cls-2" d="M113.29,18.54a1.38,1.38,0,0,1-.05,1.7l-6.86,4.81c-.71.41-1.78-.09-2.39-1.14s-.5-2.23.22-2.64l7.58-3.53a1.37,1.37,0,0,1,1.5.81"/></g></g></svg>