<svg width="1440" height="868" xmlns="http://www.w3.org/2000/svg" xmlns:xlink="http://www.w3.org/1999/xlink"><g transform="translate(-5648 -2395)"><mask id="a"><use xlink:href="#path0_fill" transform="translate(5648 2395)" fill="#C4C4C4"/></mask><g mask="url(#a)"><use xlink:href="#path1_fill" transform="translate(5636.5 2101)" fill="url(#paint1_linear)"/></g><g style="mix-blend-mode:multiply" mask="url(#a)"><mask id="b"><use xlink:href="#path2_fill" transform="translate(5636.5 2101)" fill="url(#paint2_linear)"/></mask><g style="mix-blend-mode:multiply" opacity=".5" mask="url(#b)"><use xlink:href="#path3_fill" transform="rotate(6.764 -20400.676 54064.654)" fill="url(#paint3_linear)"/></g></g><g style="mix-blend-mode:multiply" opacity=".5" mask="url(#a)"><use xlink:href="#path3_fill" transform="translate(5604 2951)" fill="url(#paint4_linear)"/></g></g><defs><linearGradient id="paint1_linear" x2="1" gradientUnits="userSpaceOnUse" gradientTransform="matrix(2096.67 910.071 -1045.89 1821.02 364.79 -415.868)"><stop offset="0" stop-color="#0070AA"/><stop offset=".811" stop-color="#2CC1DA"/><stop offset="1" stop-color="#00ADEE"/></linearGradient><linearGradient id="paint2_linear" x2="1" gradientUnits="userSpaceOnUse" gradientTransform="matrix(2096.67 910.071 -1045.89 1821.02 364.79 -415.868)"><stop offset="0" stop-color="#0070AA"/><stop offset=".811" stop-color="#2CC1DA"/><stop offset="1" stop-color="#00ADEE"/></linearGradient><linearGradient id="paint3_linear" x2="1" gradientUnits="userSpaceOnUse" gradientTransform="matrix(-18.5 288 -776.421 -49.8743 855.21 -20.063)"><stop offset="0" stop-color="#C4C4C4"/><stop offset="1" stop-color="#FFF" stop-opacity="0"/></linearGradient><linearGradient id="paint4_linear" x2="1" gradientUnits="userSpaceOnUse" gradientTransform="matrix(59.5 281.5 -758.898 160.406 846.449 -125.203)"><stop offset="0" stop-color="#C4C4C4"/><stop offset="1" stop-color="#FFF" stop-opacity="0"/></linearGradient><path id="path0_fill" d="M0 0h1440v868H0V0z"/><path id="path1_fill" fill-rule="evenodd" d="M0 954.459V107.742c174.007 72.306 414.85 96.826 600.925 24.463l214.287-83.353C988.362-18.498 1241-15.79 1451.5 54.382v985.338c-81.42-7.24-160.92-26.14-231.17-59.079l-208.18-97.619c-174.855-81.993-440.518-94.254-660.472-30.469L0 954.459z"/><path id="path2_fill" fill-rule="evenodd" d="M0 954.458V107.742c174.007 72.306 414.851 96.826 600.926 24.463l214.287-83.353C988.362-18.498 1241-15.79 1451.5 54.38v985.339c-81.42-7.24-160.92-26.14-231.17-59.079l-208.18-97.62c-174.854-81.992-440.518-94.253-660.472-30.468L0 954.458z"/><path id="path3_fill" d="M624.5 0C451 0 91 122.614 0 173.614L12 429.5l1045 8 124.5-314.886C977.5 8.614 833.716 0 624.5 0z"/></defs></svg>