<svg width="698" height="308" viewBox="0 0 698 308" xmlns="http://www.w3.org/2000/svg"><title>stars</title><g id="Symbols" fill="none" fill-rule="evenodd" opacity=".394"><g id="get-started-section" transform="translate(-18 -6)"><g id="stars"><g transform="translate(338 49)"><path d="M215.033 6.335l3.188-1.323a1.066 1.066 0 0 0-.817-1.969l-3.187 1.323-1.324-3.187A1.064 1.064 0 0 0 211.5.603a1.067 1.067 0 0 0-.576 1.393l1.323 3.187-3.188 1.324a1.065 1.065 0 0 0 .818 1.967l3.187-1.323 1.323 3.187a1.066 1.066 0 1 0 1.968-.816l-1.323-3.187z" id="Fill-26" fill="#D2E5F9"/><path d="M246.63 140.814l3.187-1.323a1.066 1.066 0 0 0-.817-1.97l-3.187 1.324-1.324-3.187a1.064 1.064 0 0 0-1.392-.576 1.067 1.067 0 0 0-.576 1.393l1.323 3.187-3.188 1.324a1.065 1.065 0 0 0 .818 1.967l3.187-1.323 1.323 3.187a1.066 1.066 0 1 0 1.968-.816l-1.323-3.187zM6.63 40.814l3.187-1.323A1.066 1.066 0 0 0 9 37.52l-3.187 1.324-1.324-3.187a1.064 1.064 0 0 0-1.392-.576 1.067 1.067 0 0 0-.576 1.393l1.323 3.187-3.188 1.324a1.065 1.065 0 0 0 .818 1.967l3.187-1.323 1.323 3.187A1.066 1.066 0 1 0 7.952 44L6.63 40.814z" id="Fill-26-Copy" fill="#D2E5F9"/><path id="Triangle-1" stroke="#D2E5F9" stroke-width="2" stroke-linecap="round" stroke-linejoin="round" d="M26.905 158.753l4.78-8.45 4.821 9.887z"/><path id="Triangle-1-Copy" stroke="#D2E5F9" stroke-width="2" stroke-linecap="round" stroke-linejoin="round" d="M72.905 39.753l4.78-8.45 4.821 9.887z"/><path id="Triangle-1-Copy-2" stroke="#D2E5F9" stroke-width="2" stroke-linecap="round" stroke-linejoin="round" d="M276.905 78.753l4.78-8.45 4.821 9.887z"/><path d="M55.03 225.03l2.94-1.219a.984.984 0 0 0 .531-1.285.98.98 0 0 0-1.284-.529l-2.94 1.22-1.22-2.94a.981.981 0 0 0-1.284-.532.985.985 0 0 0-.532 1.285l1.221 2.94-2.94 1.218a.985.985 0 0 0 .754 1.817l2.94-1.22 1.22 2.938a.982.982 0 1 0 1.814-.752l-1.22-2.94z" id="Fill-28" fill="#D2E5F9"/><path d="M88.97 110.728a3.196 3.196 0 1 1-6.393 0 3.196 3.196 0 0 1 6.392 0z" id="Stroke-30" stroke="#D2E5F9" stroke-width="2" stroke-linecap="round"/><path d="M138.97 260.728a3.196 3.196 0 1 1-6.393 0 3.196 3.196 0 0 1 6.392 0z" id="Stroke-30-Copy-2" stroke="#D2E5F9" stroke-width="2" stroke-linecap="round"/><path d="M237.393 53.196a3.196 3.196 0 1 1-6.392 0 3.196 3.196 0 0 1 6.392 0z" id="Stroke-30-Copy" stroke="#D2E5F9" stroke-width="2" stroke-linecap="round"/></g><g id="stars-copy-2" transform="translate(428 9)"><path d="M215.033 6.335l3.188-1.323a1.066 1.066 0 0 0-.817-1.969l-3.187 1.323-1.324-3.187A1.064 1.064 0 0 0 211.5.603a1.067 1.067 0 0 0-.576 1.393l1.323 3.187-3.188 1.324a1.065 1.065 0 0 0 .818 1.967l3.187-1.323 1.323 3.187a1.066 1.066 0 1 0 1.968-.816l-1.323-3.187z" id="Fill-26" fill="#D2E5F9"/><path d="M246.63 140.814l3.187-1.323a1.066 1.066 0 0 0-.817-1.97l-3.187 1.324-1.324-3.187a1.064 1.064 0 0 0-1.392-.576 1.067 1.067 0 0 0-.576 1.393l1.323 3.187-3.188 1.324a1.065 1.065 0 0 0 .818 1.967l3.187-1.323 1.323 3.187a1.066 1.066 0 1 0 1.968-.816l-1.323-3.187zM6.63 40.814l3.187-1.323A1.066 1.066 0 0 0 9 37.52l-3.187 1.324-1.324-3.187a1.064 1.064 0 0 0-1.392-.576 1.067 1.067 0 0 0-.576 1.393l1.323 3.187-3.188 1.324a1.065 1.065 0 0 0 .818 1.967l3.187-1.323 1.323 3.187A1.066 1.066 0 1 0 7.952 44L6.63 40.814z" id="Fill-26-Copy" fill="#D2E5F9"/><path id="Triangle-1" stroke="#D2E5F9" stroke-width="2" stroke-linecap="round" stroke-linejoin="round" d="M26.905 158.753l4.78-8.45 4.821 9.887z"/><path id="Triangle-1-Copy" stroke="#D2E5F9" stroke-width="2" stroke-linecap="round" stroke-linejoin="round" d="M72.905 39.753l4.78-8.45 4.821 9.887z"/><path id="Triangle-1-Copy-2" stroke="#D2E5F9" stroke-width="2" stroke-linecap="round" stroke-linejoin="round" d="M276.905 78.753l4.78-8.45 4.821 9.887z"/><path d="M55.03 225.03l2.94-1.219a.984.984 0 0 0 .531-1.285.98.98 0 0 0-1.284-.529l-2.94 1.22-1.22-2.94a.981.981 0 0 0-1.284-.532.985.985 0 0 0-.532 1.285l1.221 2.94-2.94 1.218a.985.985 0 0 0 .754 1.817l2.94-1.22 1.22 2.938a.982.982 0 1 0 1.814-.752l-1.22-2.94z" id="Fill-28" fill="#D2E5F9"/><path d="M88.97 110.728a3.196 3.196 0 1 1-6.393 0 3.196 3.196 0 0 1 6.392 0z" id="Stroke-30" stroke="#D2E5F9" stroke-width="2" stroke-linecap="round"/><path d="M138.97 260.728a3.196 3.196 0 1 1-6.393 0 3.196 3.196 0 0 1 6.392 0z" id="Stroke-30-Copy-2" stroke="#D2E5F9" stroke-width="2" stroke-linecap="round"/><path d="M237.393 53.196a3.196 3.196 0 1 1-6.392 0 3.196 3.196 0 0 1 6.392 0z" id="Stroke-30-Copy" stroke="#D2E5F9" stroke-width="2" stroke-linecap="round"/></g><g id="stars-copy" transform="rotate(82 130.82 151.101)"><path d="M215.033 6.335l3.188-1.323a1.066 1.066 0 0 0-.817-1.969l-3.187 1.323-1.324-3.187A1.064 1.064 0 0 0 211.5.603a1.067 1.067 0 0 0-.576 1.393l1.323 3.187-3.188 1.324a1.065 1.065 0 0 0 .818 1.967l3.187-1.323 1.323 3.187a1.066 1.066 0 1 0 1.968-.816l-1.323-3.187z" id="Fill-26" fill="#D2E5F9"/><path d="M246.63 140.814l3.187-1.323a1.066 1.066 0 0 0-.817-1.97l-3.187 1.324-1.324-3.187a1.064 1.064 0 0 0-1.392-.576 1.067 1.067 0 0 0-.576 1.393l1.323 3.187-3.188 1.324a1.065 1.065 0 0 0 .818 1.967l3.187-1.323 1.323 3.187a1.066 1.066 0 1 0 1.968-.816l-1.323-3.187zM6.63 40.814l3.187-1.323A1.066 1.066 0 0 0 9 37.52l-3.187 1.324-1.324-3.187a1.064 1.064 0 0 0-1.392-.576 1.067 1.067 0 0 0-.576 1.393l1.323 3.187-3.188 1.324a1.065 1.065 0 0 0 .818 1.967l3.187-1.323 1.323 3.187A1.066 1.066 0 1 0 7.952 44L6.63 40.814z" id="Fill-26-Copy" fill="#D2E5F9"/><path id="Triangle-1" stroke="#D2E5F9" stroke-width="2" stroke-linecap="round" stroke-linejoin="round" d="M26.905 158.753l4.78-8.45 4.821 9.887z"/><path id="Triangle-1-Copy" stroke="#D2E5F9" stroke-width="2" stroke-linecap="round" stroke-linejoin="round" d="M72.905 39.753l4.78-8.45 4.821 9.887z"/><path id="Triangle-1-Copy-2" stroke="#D2E5F9" stroke-width="2" stroke-linecap="round" stroke-linejoin="round" d="M276.905 78.753l4.78-8.45 4.821 9.887z"/><path d="M55.03 225.03l2.94-1.219a.984.984 0 0 0 .531-1.285.98.98 0 0 0-1.284-.529l-2.94 1.22-1.22-2.94a.981.981 0 0 0-1.284-.532.985.985 0 0 0-.532 1.285l1.221 2.94-2.94 1.218a.985.985 0 0 0 .754 1.817l2.94-1.22 1.22 2.938a.982.982 0 1 0 1.814-.752l-1.22-2.94z" id="Fill-28" fill="#D2E5F9"/><path d="M88.97 110.728a3.196 3.196 0 1 1-6.393 0 3.196 3.196 0 0 1 6.392 0z" id="Stroke-30" stroke="#D2E5F9" stroke-width="2" stroke-linecap="round"/><path d="M138.97 260.728a3.196 3.196 0 1 1-6.393 0 3.196 3.196 0 0 1 6.392 0z" id="Stroke-30-Copy-2" stroke="#D2E5F9" stroke-width="2" stroke-linecap="round"/><path d="M237.393 53.196a3.196 3.196 0 1 1-6.392 0 3.196 3.196 0 0 1 6.392 0z" id="Stroke-30-Copy" stroke="#D2E5F9" stroke-width="2" stroke-linecap="round"/></g><g id="stars-copy-3" transform="rotate(53 123.275 289.836)"><path d="M215.033 6.335l3.188-1.323a1.066 1.066 0 0 0-.817-1.969l-3.187 1.323-1.324-3.187A1.064 1.064 0 0 0 211.5.603a1.067 1.067 0 0 0-.576 1.393l1.323 3.187-3.188 1.324a1.065 1.065 0 0 0 .818 1.967l3.187-1.323 1.323 3.187a1.066 1.066 0 1 0 1.968-.816l-1.323-3.187z" id="Fill-26" fill="#D2E5F9"/><path d="M246.63 140.814l3.187-1.323a1.066 1.066 0 0 0-.817-1.97l-3.187 1.324-1.324-3.187a1.064 1.064 0 0 0-1.392-.576 1.067 1.067 0 0 0-.576 1.393l1.323 3.187-3.188 1.324a1.065 1.065 0 0 0 .818 1.967l3.187-1.323 1.323 3.187a1.066 1.066 0 1 0 1.968-.816l-1.323-3.187zM6.63 40.814l3.187-1.323A1.066 1.066 0 0 0 9 37.52l-3.187 1.324-1.324-3.187a1.064 1.064 0 0 0-1.392-.576 1.067 1.067 0 0 0-.576 1.393l1.323 3.187-3.188 1.324a1.065 1.065 0 0 0 .818 1.967l3.187-1.323 1.323 3.187A1.066 1.066 0 1 0 7.952 44L6.63 40.814z" id="Fill-26-Copy" fill="#D2E5F9"/><path id="Triangle-1" stroke="#D2E5F9" stroke-width="2" stroke-linecap="round" stroke-linejoin="round" d="M26.905 158.753l4.78-8.45 4.821 9.887z"/><path id="Triangle-1-Copy" stroke="#D2E5F9" stroke-width="2" stroke-linecap="round" stroke-linejoin="round" d="M72.905 39.753l4.78-8.45 4.821 9.887z"/><path id="Triangle-1-Copy-2" stroke="#D2E5F9" stroke-width="2" stroke-linecap="round" stroke-linejoin="round" d="M276.905 78.753l4.78-8.45 4.821 9.887z"/><path d="M55.03 225.03l2.94-1.219a.984.984 0 0 0 .531-1.285.98.98 0 0 0-1.284-.529l-2.94 1.22-1.22-2.94a.981.981 0 0 0-1.284-.532.985.985 0 0 0-.532 1.285l1.221 2.94-2.94 1.218a.985.985 0 0 0 .754 1.817l2.94-1.22 1.22 2.938a.982.982 0 1 0 1.814-.752l-1.22-2.94z" id="Fill-28" fill="#D2E5F9"/><path d="M88.97 110.728a3.196 3.196 0 1 1-6.393 0 3.196 3.196 0 0 1 6.392 0z" id="Stroke-30" stroke="#D2E5F9" stroke-width="2" stroke-linecap="round"/><path d="M138.97 260.728a3.196 3.196 0 1 1-6.393 0 3.196 3.196 0 0 1 6.392 0z" id="Stroke-30-Copy-2" stroke="#D2E5F9" stroke-width="2" stroke-linecap="round"/><path d="M237.393 53.196a3.196 3.196 0 1 1-6.392 0 3.196 3.196 0 0 1 6.392 0z" id="Stroke-30-Copy" stroke="#D2E5F9" stroke-width="2" stroke-linecap="round"/></g></g></g></g></svg>