<svg width="25" height="34" xmlns="http://www.w3.org/2000/svg" xmlns:xlink="http://www.w3.org/1999/xlink"><use xlink:href="#path0_fill" fill="#FFF"/><use xlink:href="#path1_fill" transform="translate(10.45 20.1)" fill="#FFF"/><defs><path id="path0_fill" fill-rule="evenodd" d="M22.302 22.092c0 4.509-5.07 9.349-9.803 9.349-4.732 0-9.801-4.84-9.801-9.349V11.908c0-4.509 5.069-9.349 9.801-9.349 4.733 0 9.803 4.84 9.803 9.349v10.184zM12.5 0C5.607 0 0 5.342 0 11.908v10.184C0 28.658 5.607 34 12.499 34 19.392 34 25 28.658 25 22.092V11.908C25 5.342 19.392 0 12.499 0z"/><path id="path1_fill" fill-rule="evenodd" d="M1.959 0C.877 0 0 .836 0 1.866v2.68c0 1.03.877 1.866 1.959 1.866 1.08 0 1.958-.835 1.958-1.865V1.866C3.917.836 3.04 0 1.96 0z"/></defs></svg>